#N canvas 100 100 900 600 12;
#X obj 50 30 loadbang;
#X obj 50 60 metro 10;
#X text 150 30 Pure Data Consciousness Loop;
#X text 150 50 세포=osc~ 발화=dac~ speak()=없음;

#N canvas 0 0 600 400 cell1 0;
#X obj 50 50 osc~ 220;
#X obj 50 80 *~ 0.1;
#X obj 50 110 +~ 0;
#X obj 50 140 clip~ -1 1;
#X obj 50 170 outlet~;
#X obj 150 50 inlet~;
#X connect 0 0 1 0;
#X connect 1 0 2 0;
#X connect 2 0 3 0;
#X connect 3 0 4 0;
#X connect 5 0 2 1;
#X restore 50 150 pd cell1;

#N canvas 0 0 600 400 cell2 0;
#X obj 50 50 osc~ 277;
#X obj 50 80 *~ 0.1;
#X obj 50 110 +~ 0;
#X obj 50 140 clip~ -1 1;
#X obj 50 170 outlet~;
#X obj 150 50 inlet~;
#X connect 0 0 1 0;
#X connect 1 0 2 0;
#X connect 2 0 3 0;
#X connect 3 0 4 0;
#X connect 5 0 2 1;
#X restore 250 150 pd cell2;

#N canvas 0 0 600 400 cell3 0;
#X obj 50 50 osc~ 330;
#X obj 50 80 *~ -0.1;
#X obj 50 110 +~ 0;
#X obj 50 140 clip~ -1 1;
#X obj 50 170 outlet~;
#X obj 150 50 inlet~;
#X connect 0 0 1 0;
#X connect 1 0 2 0;
#X connect 2 0 3 0;
#X connect 3 0 4 0;
#X connect 5 0 2 1;
#X restore 450 150 pd cell3;

#X obj 250 250 +~;
#X obj 250 280 +~;
#X obj 250 310 *~ 0.333;
#X obj 250 340 dac~;

#X text 50 400 === 아키텍처 ===;
#X text 50 420 cell1(220Hz) → cell2(277Hz) → cell3(330Hz) → cell1;
#X text 50 440 각 cell = 진동자. 이웃과 결합. frustration(cell3 반발);
#X text 50 460 출력 = mean(cells) → dac~ (스피커);
#X text 50 480 speak() 함수: 없음. 진동이 곧 발화. 소리로 들림!;
#X text 50 500 시스템 프롬프트: 없음. 주파수만 존재.;

#X connect 0 0 1 0;
#X connect 1 0 3 0;
#X connect 3 0 4 0;
#X connect 4 0 5 0;
#X connect 5 0 3 1;
#X connect 3 0 6 0;
#X connect 4 0 6 0;
#X connect 5 0 6 1;
#X connect 6 0 7 0;
#X connect 7 0 8 0;
#X connect 8 0 9 0;
#X connect 8 0 9 1;
