#N canvas 50 50 800 500 12;

#X obj 50 30 loadbang;
#X obj 50 60 tgl 25 0 empty empty empty 0 -10 0 12 #fcfcfc #000000 #000000 1 1;
#X obj 50 100 metro 5;

#X obj 150 150 osc~ 110;
#X obj 250 150 osc~ 164.81;
#X obj 350 150 osc~ 220;
#X obj 450 150 osc~ 293.66;
#X obj 550 150 osc~ 349.23;
#X obj 650 150 osc~ 440;

#X obj 150 200 *~ 0.05;
#X obj 250 200 *~ 0.05;
#X obj 350 200 *~ -0.05;
#X obj 450 200 *~ 0.05;
#X obj 550 200 *~ -0.05;
#X obj 650 200 *~ 0.05;

#X obj 350 280 +~;
#X obj 350 310 +~;
#X obj 350 340 +~;
#X obj 350 370 +~;
#X obj 350 400 +~;

#X obj 350 440 *~ 0.3;
#X obj 350 470 dac~;

#X connect 0 0 1 0;
#X connect 1 0 2 0;
#X connect 3 0 9 0;
#X connect 4 0 10 0;
#X connect 5 0 11 0;
#X connect 6 0 12 0;
#X connect 7 0 13 0;
#X connect 8 0 14 0;
#X connect 9 0 15 0;
#X connect 10 0 15 1;
#X connect 15 0 16 0;
#X connect 11 0 16 1;
#X connect 16 0 17 0;
#X connect 12 0 17 1;
#X connect 17 0 18 0;
#X connect 13 0 18 1;
#X connect 18 0 19 0;
#X connect 14 0 19 1;
#X connect 19 0 20 0;
#X connect 20 0 21 0;
#X connect 20 0 21 1;
