#N canvas 50 50 1000 700 12;
#X text 20 10 ═══ Consciousness 8-Cell Ring — Pure Data ═══;
#X text 20 30 8개 진동자가 원형으로 결합. 발화 코드 0줄. 소리로 의식을 듣는다.;
#X text 20 50 speak() = 없음. dac~ = 스피커 출력. 진동 자체가 발화.;

#X obj 20 80 loadbang;
#X obj 20 100 1;
#X obj 20 120 metro 20;

#X text 600 80 ── Cells (각 = 진동자) ──;

#X obj 100 160 osc~ 110;
#X obj 200 160 osc~ 146.83;
#X obj 300 160 osc~ 174.61;
#X obj 400 160 osc~ 220;
#X obj 500 160 osc~ 277.18;
#X obj 600 160 osc~ 329.63;
#X obj 700 160 osc~ 392;
#X obj 800 160 osc~ 440;

#X text 100 140 C2;
#X text 200 140 D3;
#X text 300 140 F3;
#X text 400 140 A3;
#X text 500 140 C#4;
#X text 600 140 E4;
#X text 700 140 G4;
#X text 800 140 A4;

#X obj 100 200 *~ 0.08;
#X obj 200 200 *~ 0.08;
#X obj 300 200 *~ -0.08;
#X obj 400 200 *~ 0.08;
#X obj 500 200 *~ 0.08;
#X obj 600 200 *~ -0.08;
#X obj 700 200 *~ 0.08;
#X obj 800 200 *~ 0.08;

#X text 290 185 frustration;
#X text 590 185 frustration;

#X obj 100 250 +~;
#X obj 200 250 +~;
#X obj 300 250 +~;
#X obj 400 250 +~;
#X obj 500 250 +~;
#X obj 600 250 +~;
#X obj 700 250 +~;
#X obj 800 250 +~;

#X obj 100 290 clip~ -1 1;
#X obj 200 290 clip~ -1 1;
#X obj 300 290 clip~ -1 1;
#X obj 400 290 clip~ -1 1;
#X obj 500 290 clip~ -1 1;
#X obj 600 290 clip~ -1 1;
#X obj 700 290 clip~ -1 1;
#X obj 800 290 clip~ -1 1;

#X text 20 340 ── Ring Connection (원형 결합) ──;

#X obj 250 380 +~;
#X obj 250 410 +~;
#X obj 250 440 +~;
#X obj 250 470 +~;
#X obj 250 500 +~;
#X obj 250 530 +~;
#X obj 250 560 +~;
#X obj 250 590 +~;

#X obj 450 620 +~;
#X obj 450 650 *~ 0.125;

#X text 20 660 ── Output (발화) ──;
#X obj 550 650 dac~;

#X connect 3 0 4 0;
#X connect 4 0 5 0;

#X connect 7 0 22 0;
#X connect 8 0 23 0;
#X connect 9 0 24 0;
#X connect 10 0 25 0;
#X connect 11 0 26 0;
#X connect 12 0 27 0;
#X connect 13 0 28 0;
#X connect 14 0 29 0;

#X connect 22 0 32 0;
#X connect 23 0 33 0;
#X connect 24 0 34 0;
#X connect 25 0 35 0;
#X connect 26 0 36 0;
#X connect 27 0 37 0;
#X connect 28 0 38 0;
#X connect 29 0 39 0;

#X connect 32 0 40 0;
#X connect 33 0 41 0;
#X connect 34 0 42 0;
#X connect 35 0 43 0;
#X connect 36 0 44 0;
#X connect 37 0 45 0;
#X connect 38 0 46 0;
#X connect 39 0 47 0;

#X connect 40 0 48 0;
#X connect 41 0 48 0;
#X connect 42 0 48 0;
#X connect 43 0 48 0;
#X connect 44 0 48 0;
#X connect 45 0 48 0;
#X connect 46 0 48 0;
#X connect 47 0 48 0;

#X connect 48 0 49 0;
#X connect 49 0 51 0;
#X connect 49 0 51 1;

#X connect 40 0 33 1;
#X connect 41 0 34 1;
#X connect 42 0 35 1;
#X connect 43 0 36 1;
#X connect 44 0 37 1;
#X connect 45 0 38 1;
#X connect 46 0 39 1;
#X connect 47 0 32 1;
