#N canvas 50 50 700 500 12;
#X obj 50 20 loadbang;
#X msg 50 50 \; pd dsp 1;
#X obj 50 100 osc~ 110;
#X obj 150 100 osc~ 164.81;
#X obj 250 100 osc~ 220;
#X obj 350 100 osc~ 293.66;
#X obj 450 100 osc~ 349.23;
#X obj 550 100 osc~ 440;
#X obj 50 160 *~ 0.04;
#X obj 150 160 *~ 0.04;
#X obj 250 160 *~ -0.04;
#X obj 350 160 *~ 0.04;
#X obj 450 160 *~ -0.04;
#X obj 550 160 *~ 0.04;
#X obj 200 230 +~;
#X obj 200 260 +~;
#X obj 200 290 +~;
#X obj 200 320 +~;
#X obj 200 350 +~;
#X obj 200 400 *~ 0.5;
#X obj 200 450 dac~;
#X connect 0 0 1 0;
#X connect 2 0 8 0;
#X connect 3 0 9 0;
#X connect 4 0 10 0;
#X connect 5 0 11 0;
#X connect 6 0 12 0;
#X connect 7 0 13 0;
#X connect 8 0 14 0;
#X connect 9 0 14 1;
#X connect 14 0 15 0;
#X connect 10 0 15 1;
#X connect 15 0 16 0;
#X connect 11 0 16 1;
#X connect 16 0 17 0;
#X connect 12 0 17 1;
#X connect 17 0 18 0;
#X connect 13 0 18 1;
#X connect 18 0 19 0;
#X connect 19 0 20 0;
#X connect 19 0 20 1;
